<mxfile host="app.diagrams.net" modified="2023-06-29T03:16:42.007Z" agent="Mozilla/5.0 (Windows NT 10.0; Win64; x64) AppleWebKit/537.36 (KHTML, like Gecko) Chrome/114.0.0.0 Safari/537.36" etag="HcNId4jqFB7WjzWWGVUi" version="21.5.2" type="google">
  <diagram name="Page-1" id="6133507b-19e7-1e82-6fc7-422aa6c4b21f">
    <mxGraphModel grid="1" page="1" gridSize="10" guides="1" tooltips="1" connect="1" arrows="1" fold="1" pageScale="1" pageWidth="1100" pageHeight="850" background="none" math="0" shadow="0">
      <root>
        <mxCell id="0" />
        <mxCell id="1" parent="0" />
        <mxCell id="78961159f06e98e8-17" value="Pet Shop" style="swimlane;html=1;fontStyle=1;align=center;verticalAlign=top;childLayout=stackLayout;horizontal=1;startSize=26;horizontalStack=0;resizeParent=1;resizeLast=0;collapsible=1;marginBottom=0;swimlaneFillColor=#ffffff;rounded=0;shadow=0;comic=0;labelBackgroundColor=none;strokeWidth=1;fillColor=#fad7ac;fontFamily=Verdana;fontSize=12;strokeColor=#b46504;" vertex="1" parent="1">
          <mxGeometry x="-140" y="-318" width="300" height="238" as="geometry" />
        </mxCell>
        <mxCell id="78961159f06e98e8-23" value="- Nome: String" style="text;html=1;strokeColor=none;fillColor=none;align=left;verticalAlign=top;spacingLeft=4;spacingRight=4;whiteSpace=wrap;overflow=hidden;rotatable=0;points=[[0,0.5],[1,0.5]];portConstraint=eastwest;" vertex="1" parent="78961159f06e98e8-17">
          <mxGeometry y="26" width="300" height="26" as="geometry" />
        </mxCell>
        <mxCell id="78961159f06e98e8-24" value="- Endereço: endereço" style="text;html=1;strokeColor=none;fillColor=none;align=left;verticalAlign=top;spacingLeft=4;spacingRight=4;whiteSpace=wrap;overflow=hidden;rotatable=0;points=[[0,0.5],[1,0.5]];portConstraint=eastwest;" vertex="1" parent="78961159f06e98e8-17">
          <mxGeometry y="52" width="300" height="26" as="geometry" />
        </mxCell>
        <mxCell id="3UNSYMi1DVvsT3ZoBCkZ-188" value="- funcionarios: List&amp;lt;Funcionario&amp;gt;" style="text;html=1;strokeColor=none;fillColor=none;align=left;verticalAlign=top;spacingLeft=4;spacingRight=4;whiteSpace=wrap;overflow=hidden;rotatable=0;points=[[0,0.5],[1,0.5]];portConstraint=eastwest;" vertex="1" parent="78961159f06e98e8-17">
          <mxGeometry y="78" width="300" height="26" as="geometry" />
        </mxCell>
        <mxCell id="3UNSYMi1DVvsT3ZoBCkZ-189" value="- animais: List&amp;lt;Animal&amp;gt;" style="text;html=1;strokeColor=none;fillColor=none;align=left;verticalAlign=top;spacingLeft=4;spacingRight=4;whiteSpace=wrap;overflow=hidden;rotatable=0;points=[[0,0.5],[1,0.5]];portConstraint=eastwest;" vertex="1" parent="78961159f06e98e8-17">
          <mxGeometry y="104" width="300" height="26" as="geometry" />
        </mxCell>
        <mxCell id="3UNSYMi1DVvsT3ZoBCkZ-190" value="- Loja: Loja" style="text;html=1;strokeColor=none;fillColor=none;align=left;verticalAlign=top;spacingLeft=4;spacingRight=4;whiteSpace=wrap;overflow=hidden;rotatable=0;points=[[0,0.5],[1,0.5]];portConstraint=eastwest;" vertex="1" parent="78961159f06e98e8-17">
          <mxGeometry y="130" width="300" height="26" as="geometry" />
        </mxCell>
        <mxCell id="78961159f06e98e8-19" value="" style="line;html=1;strokeWidth=1;fillColor=none;align=left;verticalAlign=middle;spacingTop=-1;spacingLeft=3;spacingRight=3;rotatable=0;labelPosition=right;points=[];portConstraint=eastwest;" vertex="1" parent="78961159f06e98e8-17">
          <mxGeometry y="156" width="300" height="8" as="geometry" />
        </mxCell>
        <mxCell id="78961159f06e98e8-27" value="+ adicionarFuncionario(funcionario: Funcionario): Void" style="text;html=1;strokeColor=none;fillColor=none;align=left;verticalAlign=top;spacingLeft=4;spacingRight=4;whiteSpace=wrap;overflow=hidden;rotatable=0;points=[[0,0.5],[1,0.5]];portConstraint=eastwest;" vertex="1" parent="78961159f06e98e8-17">
          <mxGeometry y="164" width="300" height="26" as="geometry" />
        </mxCell>
        <mxCell id="3UNSYMi1DVvsT3ZoBCkZ-193" value="+ adicionarAnimal(animal: Animal):Void&amp;nbsp;" style="text;html=1;strokeColor=none;fillColor=none;align=left;verticalAlign=top;spacingLeft=4;spacingRight=4;whiteSpace=wrap;overflow=hidden;rotatable=0;points=[[0,0.5],[1,0.5]];portConstraint=eastwest;" vertex="1" parent="78961159f06e98e8-17">
          <mxGeometry y="190" width="300" height="26" as="geometry" />
        </mxCell>
        <mxCell id="78961159f06e98e8-43" value="Produto" style="swimlane;html=1;fontStyle=1;align=center;verticalAlign=top;childLayout=stackLayout;horizontal=1;startSize=26;horizontalStack=0;resizeParent=1;resizeLast=0;collapsible=1;marginBottom=0;swimlaneFillColor=#ffffff;rounded=0;shadow=0;comic=0;labelBackgroundColor=none;strokeWidth=1;fillColor=#fad7ac;fontFamily=Verdana;fontSize=12;strokeColor=#b46504;" vertex="1" parent="1">
          <mxGeometry x="430" y="240" width="160" height="100" as="geometry" />
        </mxCell>
        <mxCell id="78961159f06e98e8-44" value="+ nome: String" style="text;html=1;strokeColor=none;fillColor=none;align=left;verticalAlign=top;spacingLeft=4;spacingRight=4;whiteSpace=wrap;overflow=hidden;rotatable=0;points=[[0,0.5],[1,0.5]];portConstraint=eastwest;" vertex="1" parent="78961159f06e98e8-43">
          <mxGeometry y="26" width="160" height="26" as="geometry" />
        </mxCell>
        <mxCell id="78961159f06e98e8-45" value="+ preco: double" style="text;html=1;strokeColor=none;fillColor=none;align=left;verticalAlign=top;spacingLeft=4;spacingRight=4;whiteSpace=wrap;overflow=hidden;rotatable=0;points=[[0,0.5],[1,0.5]];portConstraint=eastwest;" vertex="1" parent="78961159f06e98e8-43">
          <mxGeometry y="52" width="160" height="26" as="geometry" />
        </mxCell>
        <mxCell id="78961159f06e98e8-51" value="" style="line;html=1;strokeWidth=1;fillColor=none;align=left;verticalAlign=middle;spacingTop=-1;spacingLeft=3;spacingRight=3;rotatable=0;labelPosition=right;points=[];portConstraint=eastwest;" vertex="1" parent="78961159f06e98e8-43">
          <mxGeometry y="78" width="160" height="8" as="geometry" />
        </mxCell>
        <mxCell id="3UNSYMi1DVvsT3ZoBCkZ-1" value="Loja" style="swimlane;html=1;fontStyle=1;align=center;verticalAlign=top;childLayout=stackLayout;horizontal=1;startSize=20;horizontalStack=0;resizeParent=1;resizeLast=0;collapsible=1;marginBottom=0;swimlaneFillColor=#ffffff;rounded=0;shadow=0;comic=0;labelBackgroundColor=none;strokeWidth=1;fillColor=#fad7ac;fontFamily=Verdana;fontSize=12;strokeColor=#b46504;" vertex="1" parent="1">
          <mxGeometry x="390" y="-370" width="240" height="150" as="geometry" />
        </mxCell>
        <mxCell id="3UNSYMi1DVvsT3ZoBCkZ-2" value="- Vendas: List&amp;lt;Venda&amp;gt;" style="text;html=1;strokeColor=none;fillColor=none;align=left;verticalAlign=top;spacingLeft=4;spacingRight=4;whiteSpace=wrap;overflow=hidden;rotatable=0;points=[[0,0.5],[1,0.5]];portConstraint=eastwest;" vertex="1" parent="3UNSYMi1DVvsT3ZoBCkZ-1">
          <mxGeometry y="20" width="240" height="26" as="geometry" />
        </mxCell>
        <mxCell id="3UNSYMi1DVvsT3ZoBCkZ-4" value="" style="line;html=1;strokeWidth=1;fillColor=none;align=left;verticalAlign=middle;spacingTop=-1;spacingLeft=3;spacingRight=3;rotatable=0;labelPosition=right;points=[];portConstraint=eastwest;" vertex="1" parent="3UNSYMi1DVvsT3ZoBCkZ-1">
          <mxGeometry y="46" width="240" height="4" as="geometry" />
        </mxCell>
        <mxCell id="3UNSYMi1DVvsT3ZoBCkZ-5" value="+ efetuarVenda(): Void" style="text;html=1;strokeColor=none;fillColor=none;align=left;verticalAlign=top;spacingLeft=4;spacingRight=4;whiteSpace=wrap;overflow=hidden;rotatable=0;points=[[0,0.5],[1,0.5]];portConstraint=eastwest;" vertex="1" parent="3UNSYMi1DVvsT3ZoBCkZ-1">
          <mxGeometry y="50" width="240" height="36" as="geometry" />
        </mxCell>
        <mxCell id="VXUbQEOCG0mEE8cpqbr5-59" value="+ relatorioVendas(): Void" style="text;html=1;strokeColor=none;fillColor=none;align=left;verticalAlign=top;spacingLeft=4;spacingRight=4;whiteSpace=wrap;overflow=hidden;rotatable=0;points=[[0,0.5],[1,0.5]];portConstraint=eastwest;" vertex="1" parent="3UNSYMi1DVvsT3ZoBCkZ-1">
          <mxGeometry y="86" width="240" height="36" as="geometry" />
        </mxCell>
        <mxCell id="3UNSYMi1DVvsT3ZoBCkZ-8" value="ItemVenda" style="swimlane;html=1;fontStyle=1;align=center;verticalAlign=top;childLayout=stackLayout;horizontal=1;startSize=20;horizontalStack=0;resizeParent=1;resizeLast=0;collapsible=1;marginBottom=0;swimlaneFillColor=#ffffff;rounded=0;shadow=0;comic=0;labelBackgroundColor=none;strokeWidth=1;fillColor=#fad7ac;fontFamily=Verdana;fontSize=12;strokeColor=#b46504;" vertex="1" parent="1">
          <mxGeometry x="430" y="100" width="160" height="90" as="geometry" />
        </mxCell>
        <mxCell id="3UNSYMi1DVvsT3ZoBCkZ-9" value="+ quantidade: double" style="text;html=1;strokeColor=none;fillColor=none;align=left;verticalAlign=top;spacingLeft=4;spacingRight=4;whiteSpace=wrap;overflow=hidden;rotatable=0;points=[[0,0.5],[1,0.5]];portConstraint=eastwest;" vertex="1" parent="3UNSYMi1DVvsT3ZoBCkZ-8">
          <mxGeometry y="20" width="160" height="26" as="geometry" />
        </mxCell>
        <mxCell id="3UNSYMi1DVvsT3ZoBCkZ-10" value="+ Produto: produto" style="text;html=1;strokeColor=none;fillColor=none;align=left;verticalAlign=top;spacingLeft=4;spacingRight=4;whiteSpace=wrap;overflow=hidden;rotatable=0;points=[[0,0.5],[1,0.5]];portConstraint=eastwest;" vertex="1" parent="3UNSYMi1DVvsT3ZoBCkZ-8">
          <mxGeometry y="46" width="160" height="26" as="geometry" />
        </mxCell>
        <mxCell id="3UNSYMi1DVvsT3ZoBCkZ-11" value="" style="line;html=1;strokeWidth=1;fillColor=none;align=left;verticalAlign=middle;spacingTop=-1;spacingLeft=3;spacingRight=3;rotatable=0;labelPosition=right;points=[];portConstraint=eastwest;" vertex="1" parent="3UNSYMi1DVvsT3ZoBCkZ-8">
          <mxGeometry y="72" width="160" height="8" as="geometry" />
        </mxCell>
        <mxCell id="tP9rD8E0Mb0VpsL-k2VD-20" style="edgeStyle=orthogonalEdgeStyle;rounded=0;orthogonalLoop=1;jettySize=auto;html=1;exitX=0.5;exitY=0;exitDx=0;exitDy=0;entryX=0.5;entryY=1;entryDx=0;entryDy=0;" edge="1" parent="1" source="3UNSYMi1DVvsT3ZoBCkZ-19" target="3UNSYMi1DVvsT3ZoBCkZ-61">
          <mxGeometry relative="1" as="geometry" />
        </mxCell>
        <mxCell id="3UNSYMi1DVvsT3ZoBCkZ-19" value="Cliente" style="swimlane;html=1;fontStyle=1;align=center;verticalAlign=top;childLayout=stackLayout;horizontal=1;startSize=20;horizontalStack=0;resizeParent=1;resizeLast=0;collapsible=1;marginBottom=0;swimlaneFillColor=#ffffff;rounded=0;shadow=0;comic=0;labelBackgroundColor=none;strokeWidth=1;fillColor=#fad7ac;fontFamily=Verdana;fontSize=12;strokeColor=#b46504;" vertex="1" parent="1">
          <mxGeometry x="-580" y="-40" width="160" height="80" as="geometry" />
        </mxCell>
        <mxCell id="3UNSYMi1DVvsT3ZoBCkZ-20" value="- WhatsApp: String" style="text;html=1;strokeColor=none;fillColor=none;align=left;verticalAlign=top;spacingLeft=4;spacingRight=4;whiteSpace=wrap;overflow=hidden;rotatable=0;points=[[0,0.5],[1,0.5]];portConstraint=eastwest;" vertex="1" parent="3UNSYMi1DVvsT3ZoBCkZ-19">
          <mxGeometry y="20" width="160" height="26" as="geometry" />
        </mxCell>
        <mxCell id="3UNSYMi1DVvsT3ZoBCkZ-22" value="" style="line;html=1;strokeWidth=1;fillColor=none;align=left;verticalAlign=middle;spacingTop=-1;spacingLeft=3;spacingRight=3;rotatable=0;labelPosition=right;points=[];portConstraint=eastwest;" vertex="1" parent="3UNSYMi1DVvsT3ZoBCkZ-19">
          <mxGeometry y="46" width="160" height="8" as="geometry" />
        </mxCell>
        <mxCell id="lE0ReEdnMr0ckn8vEKSM-10" value="+ fidelidade(): void" style="text;html=1;strokeColor=none;fillColor=none;align=left;verticalAlign=top;spacingLeft=4;spacingRight=4;whiteSpace=wrap;overflow=hidden;rotatable=0;points=[[0,0.5],[1,0.5]];portConstraint=eastwest;" vertex="1" parent="3UNSYMi1DVvsT3ZoBCkZ-19">
          <mxGeometry y="54" width="160" height="26" as="geometry" />
        </mxCell>
        <mxCell id="3UNSYMi1DVvsT3ZoBCkZ-27" value="Animal" style="swimlane;html=1;fontStyle=1;align=center;verticalAlign=top;childLayout=stackLayout;horizontal=1;startSize=20;horizontalStack=0;resizeParent=1;resizeLast=0;collapsible=1;marginBottom=0;swimlaneFillColor=#ffffff;rounded=0;shadow=0;comic=0;labelBackgroundColor=none;strokeWidth=1;fillColor=#fad7ac;fontFamily=Verdana;fontSize=12;strokeColor=#b46504;" vertex="1" parent="1">
          <mxGeometry x="-115" y="80" width="250" height="190" as="geometry" />
        </mxCell>
        <mxCell id="3UNSYMi1DVvsT3ZoBCkZ-28" value="&lt;font style=&quot;vertical-align: inherit;&quot;&gt;&lt;font style=&quot;vertical-align: inherit;&quot;&gt;- Nome: String&lt;/font&gt;&lt;/font&gt;" style="text;html=1;strokeColor=none;fillColor=none;align=left;verticalAlign=top;spacingLeft=4;spacingRight=4;whiteSpace=wrap;overflow=hidden;rotatable=0;points=[[0,0.5],[1,0.5]];portConstraint=eastwest;" vertex="1" parent="3UNSYMi1DVvsT3ZoBCkZ-27">
          <mxGeometry y="20" width="250" height="26" as="geometry" />
        </mxCell>
        <mxCell id="3UNSYMi1DVvsT3ZoBCkZ-29" value="&lt;font style=&quot;vertical-align: inherit;&quot;&gt;&lt;font style=&quot;vertical-align: inherit;&quot;&gt;- Idade: int&lt;/font&gt;&lt;/font&gt;" style="text;html=1;strokeColor=none;fillColor=none;align=left;verticalAlign=top;spacingLeft=4;spacingRight=4;whiteSpace=wrap;overflow=hidden;rotatable=0;points=[[0,0.5],[1,0.5]];portConstraint=eastwest;" vertex="1" parent="3UNSYMi1DVvsT3ZoBCkZ-27">
          <mxGeometry y="46" width="250" height="26" as="geometry" />
        </mxCell>
        <mxCell id="3UNSYMi1DVvsT3ZoBCkZ-34" value="&lt;font style=&quot;vertical-align: inherit;&quot;&gt;&lt;font style=&quot;vertical-align: inherit;&quot;&gt;- Espécie: String&lt;/font&gt;&lt;/font&gt;" style="text;html=1;strokeColor=none;fillColor=none;align=left;verticalAlign=top;spacingLeft=4;spacingRight=4;whiteSpace=wrap;overflow=hidden;rotatable=0;points=[[0,0.5],[1,0.5]];portConstraint=eastwest;" vertex="1" parent="3UNSYMi1DVvsT3ZoBCkZ-27">
          <mxGeometry y="72" width="250" height="26" as="geometry" />
        </mxCell>
        <mxCell id="3UNSYMi1DVvsT3ZoBCkZ-201" value="&lt;font style=&quot;vertical-align: inherit;&quot;&gt;&lt;font style=&quot;vertical-align: inherit;&quot;&gt;- descrição: String&lt;/font&gt;&lt;/font&gt;" style="text;html=1;strokeColor=none;fillColor=none;align=left;verticalAlign=top;spacingLeft=4;spacingRight=4;whiteSpace=wrap;overflow=hidden;rotatable=0;points=[[0,0.5],[1,0.5]];portConstraint=eastwest;" vertex="1" parent="3UNSYMi1DVvsT3ZoBCkZ-27">
          <mxGeometry y="98" width="250" height="26" as="geometry" />
        </mxCell>
        <mxCell id="lE0ReEdnMr0ckn8vEKSM-5" value="&lt;font style=&quot;vertical-align: inherit;&quot;&gt;&lt;font style=&quot;vertical-align: inherit;&quot;&gt;- clientes : List&amp;lt;Cliente&amp;gt;&lt;/font&gt;&lt;/font&gt;" style="text;html=1;strokeColor=none;fillColor=none;align=left;verticalAlign=top;spacingLeft=4;spacingRight=4;whiteSpace=wrap;overflow=hidden;rotatable=0;points=[[0,0.5],[1,0.5]];portConstraint=eastwest;" vertex="1" parent="3UNSYMi1DVvsT3ZoBCkZ-27">
          <mxGeometry y="124" width="250" height="26" as="geometry" />
        </mxCell>
        <mxCell id="lE0ReEdnMr0ckn8vEKSM-6" value="" style="endArrow=none;html=1;rounded=0;exitX=0;exitY=0.75;exitDx=0;exitDy=0;entryX=1;entryY=-0.045;entryDx=0;entryDy=0;entryPerimeter=0;" edge="1" parent="3UNSYMi1DVvsT3ZoBCkZ-27" target="lE0ReEdnMr0ckn8vEKSM-7">
          <mxGeometry width="50" height="50" relative="1" as="geometry">
            <mxPoint y="150" as="sourcePoint" />
            <mxPoint x="160" y="150" as="targetPoint" />
          </mxGeometry>
        </mxCell>
        <mxCell id="lE0ReEdnMr0ckn8vEKSM-7" value="+ adicionarCliente(cliente: Cliente): void" style="text;html=1;strokeColor=none;fillColor=none;align=left;verticalAlign=top;spacingLeft=4;spacingRight=4;whiteSpace=wrap;overflow=hidden;rotatable=0;points=[[0,0.5],[1,0.5]];portConstraint=eastwest;" vertex="1" parent="3UNSYMi1DVvsT3ZoBCkZ-27">
          <mxGeometry y="150" width="250" height="26" as="geometry" />
        </mxCell>
        <mxCell id="3UNSYMi1DVvsT3ZoBCkZ-45" value="Endereço" style="swimlane;html=1;fontStyle=1;align=center;verticalAlign=top;childLayout=stackLayout;horizontal=1;startSize=20;horizontalStack=0;resizeParent=1;resizeLast=0;collapsible=1;marginBottom=0;swimlaneFillColor=#ffffff;rounded=0;shadow=0;comic=0;labelBackgroundColor=none;strokeWidth=1;fillColor=#fad7ac;fontFamily=Verdana;fontSize=12;strokeColor=#b46504;" vertex="1" parent="1">
          <mxGeometry x="-750" y="-300" width="160" height="140" as="geometry" />
        </mxCell>
        <mxCell id="3UNSYMi1DVvsT3ZoBCkZ-46" value="- rua: String" style="text;html=1;strokeColor=none;fillColor=none;align=left;verticalAlign=top;spacingLeft=4;spacingRight=4;whiteSpace=wrap;overflow=hidden;rotatable=0;points=[[0,0.5],[1,0.5]];portConstraint=eastwest;" vertex="1" parent="3UNSYMi1DVvsT3ZoBCkZ-45">
          <mxGeometry y="20" width="160" height="26" as="geometry" />
        </mxCell>
        <mxCell id="3UNSYMi1DVvsT3ZoBCkZ-196" value="- bairro: String" style="text;html=1;strokeColor=none;fillColor=none;align=left;verticalAlign=top;spacingLeft=4;spacingRight=4;whiteSpace=wrap;overflow=hidden;rotatable=0;points=[[0,0.5],[1,0.5]];portConstraint=eastwest;" vertex="1" parent="3UNSYMi1DVvsT3ZoBCkZ-45">
          <mxGeometry y="46" width="160" height="26" as="geometry" />
        </mxCell>
        <mxCell id="3UNSYMi1DVvsT3ZoBCkZ-197" value="- numero: String" style="text;html=1;strokeColor=none;fillColor=none;align=left;verticalAlign=top;spacingLeft=4;spacingRight=4;whiteSpace=wrap;overflow=hidden;rotatable=0;points=[[0,0.5],[1,0.5]];portConstraint=eastwest;" vertex="1" parent="3UNSYMi1DVvsT3ZoBCkZ-45">
          <mxGeometry y="72" width="160" height="26" as="geometry" />
        </mxCell>
        <mxCell id="3UNSYMi1DVvsT3ZoBCkZ-198" value="- cidadeEstado: String" style="text;html=1;strokeColor=none;fillColor=none;align=left;verticalAlign=top;spacingLeft=4;spacingRight=4;whiteSpace=wrap;overflow=hidden;rotatable=0;points=[[0,0.5],[1,0.5]];portConstraint=eastwest;" vertex="1" parent="3UNSYMi1DVvsT3ZoBCkZ-45">
          <mxGeometry y="98" width="160" height="26" as="geometry" />
        </mxCell>
        <mxCell id="3UNSYMi1DVvsT3ZoBCkZ-48" value="" style="line;html=1;strokeWidth=1;fillColor=none;align=left;verticalAlign=middle;spacingTop=-1;spacingLeft=3;spacingRight=3;rotatable=0;labelPosition=right;points=[];portConstraint=eastwest;" vertex="1" parent="3UNSYMi1DVvsT3ZoBCkZ-45">
          <mxGeometry y="124" width="160" height="8" as="geometry" />
        </mxCell>
        <mxCell id="tP9rD8E0Mb0VpsL-k2VD-18" style="edgeStyle=orthogonalEdgeStyle;rounded=0;orthogonalLoop=1;jettySize=auto;html=1;exitX=0.5;exitY=0;exitDx=0;exitDy=0;entryX=0.5;entryY=1;entryDx=0;entryDy=0;" edge="1" parent="1" source="3UNSYMi1DVvsT3ZoBCkZ-53" target="3UNSYMi1DVvsT3ZoBCkZ-61">
          <mxGeometry relative="1" as="geometry" />
        </mxCell>
        <mxCell id="3UNSYMi1DVvsT3ZoBCkZ-53" value="Funcionário" style="swimlane;html=1;fontStyle=1;align=center;verticalAlign=top;childLayout=stackLayout;horizontal=1;startSize=20;horizontalStack=0;resizeParent=1;resizeLast=0;collapsible=1;marginBottom=0;swimlaneFillColor=#ffffff;rounded=0;shadow=0;comic=0;labelBackgroundColor=none;strokeWidth=1;fillColor=#fad7ac;fontFamily=Verdana;fontSize=12;strokeColor=#b46504;" vertex="1" parent="1">
          <mxGeometry x="-380" y="-40" width="160" height="180" as="geometry" />
        </mxCell>
        <mxCell id="3UNSYMi1DVvsT3ZoBCkZ-54" value="- idade: int" style="text;html=1;strokeColor=none;fillColor=none;align=left;verticalAlign=top;spacingLeft=4;spacingRight=4;whiteSpace=wrap;overflow=hidden;rotatable=0;points=[[0,0.5],[1,0.5]];portConstraint=eastwest;" vertex="1" parent="3UNSYMi1DVvsT3ZoBCkZ-53">
          <mxGeometry y="20" width="160" height="26" as="geometry" />
        </mxCell>
        <mxCell id="3UNSYMi1DVvsT3ZoBCkZ-55" value="- cargo: String" style="text;html=1;strokeColor=none;fillColor=none;align=left;verticalAlign=top;spacingLeft=4;spacingRight=4;whiteSpace=wrap;overflow=hidden;rotatable=0;points=[[0,0.5],[1,0.5]];portConstraint=eastwest;" vertex="1" parent="3UNSYMi1DVvsT3ZoBCkZ-53">
          <mxGeometry y="46" width="160" height="24" as="geometry" />
        </mxCell>
        <mxCell id="lE0ReEdnMr0ckn8vEKSM-11" value="- rg: String" style="text;html=1;strokeColor=none;fillColor=none;align=left;verticalAlign=top;spacingLeft=4;spacingRight=4;whiteSpace=wrap;overflow=hidden;rotatable=0;points=[[0,0.5],[1,0.5]];portConstraint=eastwest;" vertex="1" parent="3UNSYMi1DVvsT3ZoBCkZ-53">
          <mxGeometry y="70" width="160" height="26" as="geometry" />
        </mxCell>
        <mxCell id="PRtFLLTuYd7yl_iSAvRT-1" value="- salario: double" style="text;html=1;strokeColor=none;fillColor=none;align=left;verticalAlign=top;spacingLeft=4;spacingRight=4;whiteSpace=wrap;overflow=hidden;rotatable=0;points=[[0,0.5],[1,0.5]];portConstraint=eastwest;" vertex="1" parent="3UNSYMi1DVvsT3ZoBCkZ-53">
          <mxGeometry y="96" width="160" height="26" as="geometry" />
        </mxCell>
        <mxCell id="3UNSYMi1DVvsT3ZoBCkZ-56" value="" style="line;html=1;strokeWidth=1;fillColor=none;align=left;verticalAlign=middle;spacingTop=-1;spacingLeft=3;spacingRight=3;rotatable=0;labelPosition=right;points=[];portConstraint=eastwest;" vertex="1" parent="3UNSYMi1DVvsT3ZoBCkZ-53">
          <mxGeometry y="122" width="160" height="8" as="geometry" />
        </mxCell>
        <mxCell id="lE0ReEdnMr0ckn8vEKSM-12" value="+ fidelidade():void" style="text;html=1;strokeColor=none;fillColor=none;align=left;verticalAlign=top;spacingLeft=4;spacingRight=4;whiteSpace=wrap;overflow=hidden;rotatable=0;points=[[0,0.5],[1,0.5]];portConstraint=eastwest;" vertex="1" parent="3UNSYMi1DVvsT3ZoBCkZ-53">
          <mxGeometry y="130" width="160" height="26" as="geometry" />
        </mxCell>
        <mxCell id="3UNSYMi1DVvsT3ZoBCkZ-61" value="abstract Pessoa" style="swimlane;html=1;fontStyle=1;align=center;verticalAlign=top;childLayout=stackLayout;horizontal=1;startSize=20;horizontalStack=0;resizeParent=1;resizeLast=0;collapsible=1;marginBottom=0;swimlaneFillColor=#ffffff;rounded=0;shadow=0;comic=0;labelBackgroundColor=none;strokeWidth=1;fillColor=#fad7ac;fontFamily=Verdana;fontSize=12;strokeColor=#b46504;" vertex="1" parent="1">
          <mxGeometry x="-500" y="-300" width="160" height="140" as="geometry" />
        </mxCell>
        <mxCell id="3UNSYMi1DVvsT3ZoBCkZ-62" value="- Nome: String" style="text;html=1;strokeColor=none;fillColor=none;align=left;verticalAlign=top;spacingLeft=4;spacingRight=4;whiteSpace=wrap;overflow=hidden;rotatable=0;points=[[0,0.5],[1,0.5]];portConstraint=eastwest;" vertex="1" parent="3UNSYMi1DVvsT3ZoBCkZ-61">
          <mxGeometry y="20" width="160" height="26" as="geometry" />
        </mxCell>
        <mxCell id="3UNSYMi1DVvsT3ZoBCkZ-195" value="- CPF: String" style="text;html=1;strokeColor=none;fillColor=none;align=left;verticalAlign=top;spacingLeft=4;spacingRight=4;whiteSpace=wrap;overflow=hidden;rotatable=0;points=[[0,0.5],[1,0.5]];portConstraint=eastwest;" vertex="1" parent="3UNSYMi1DVvsT3ZoBCkZ-61">
          <mxGeometry y="46" width="160" height="26" as="geometry" />
        </mxCell>
        <mxCell id="3UNSYMi1DVvsT3ZoBCkZ-63" value="- Endereço: endereço" style="text;html=1;strokeColor=none;fillColor=none;align=left;verticalAlign=top;spacingLeft=4;spacingRight=4;whiteSpace=wrap;overflow=hidden;rotatable=0;points=[[0,0.5],[1,0.5]];portConstraint=eastwest;" vertex="1" parent="3UNSYMi1DVvsT3ZoBCkZ-61">
          <mxGeometry y="72" width="160" height="26" as="geometry" />
        </mxCell>
        <mxCell id="3UNSYMi1DVvsT3ZoBCkZ-64" value="" style="line;html=1;strokeWidth=1;fillColor=none;align=left;verticalAlign=middle;spacingTop=-1;spacingLeft=3;spacingRight=3;rotatable=0;labelPosition=right;points=[];portConstraint=eastwest;" vertex="1" parent="3UNSYMi1DVvsT3ZoBCkZ-61">
          <mxGeometry y="98" width="160" height="8" as="geometry" />
        </mxCell>
        <mxCell id="lE0ReEdnMr0ckn8vEKSM-9" value="+ abstract fidelidade(): void" style="text;html=1;strokeColor=none;fillColor=none;align=left;verticalAlign=top;spacingLeft=4;spacingRight=4;whiteSpace=wrap;overflow=hidden;rotatable=0;points=[[0,0.5],[1,0.5]];portConstraint=eastwest;" vertex="1" parent="3UNSYMi1DVvsT3ZoBCkZ-61">
          <mxGeometry y="106" width="160" height="26" as="geometry" />
        </mxCell>
        <mxCell id="3UNSYMi1DVvsT3ZoBCkZ-77" value="Venda" style="swimlane;html=1;fontStyle=1;align=center;verticalAlign=top;childLayout=stackLayout;horizontal=1;startSize=26;horizontalStack=0;resizeParent=1;resizeLast=0;collapsible=1;marginBottom=0;swimlaneFillColor=#ffffff;rounded=0;shadow=0;comic=0;labelBackgroundColor=none;strokeWidth=1;fillColor=#fad7ac;fontFamily=Verdana;fontSize=12;strokeColor=#b46504;" vertex="1" parent="1">
          <mxGeometry x="397.5" y="-180" width="225" height="230" as="geometry" />
        </mxCell>
        <mxCell id="3UNSYMi1DVvsT3ZoBCkZ-78" value="- Itens: List&amp;lt;ItemVenda&amp;gt;" style="text;html=1;strokeColor=none;fillColor=none;align=left;verticalAlign=top;spacingLeft=4;spacingRight=4;whiteSpace=wrap;overflow=hidden;rotatable=0;points=[[0,0.5],[1,0.5]];portConstraint=eastwest;" vertex="1" parent="3UNSYMi1DVvsT3ZoBCkZ-77">
          <mxGeometry y="26" width="225" height="26" as="geometry" />
        </mxCell>
        <mxCell id="VXUbQEOCG0mEE8cpqbr5-60" value="- valorTotal: double&amp;nbsp;" style="text;html=1;strokeColor=none;fillColor=none;align=left;verticalAlign=top;spacingLeft=4;spacingRight=4;whiteSpace=wrap;overflow=hidden;rotatable=0;points=[[0,0.5],[1,0.5]];portConstraint=eastwest;" vertex="1" parent="3UNSYMi1DVvsT3ZoBCkZ-77">
          <mxGeometry y="52" width="225" height="26" as="geometry" />
        </mxCell>
        <mxCell id="VXUbQEOCG0mEE8cpqbr5-61" value="- cpfOperação: String&amp;nbsp;&amp;nbsp;" style="text;html=1;strokeColor=none;fillColor=none;align=left;verticalAlign=top;spacingLeft=4;spacingRight=4;whiteSpace=wrap;overflow=hidden;rotatable=0;points=[[0,0.5],[1,0.5]];portConstraint=eastwest;" vertex="1" parent="3UNSYMi1DVvsT3ZoBCkZ-77">
          <mxGeometry y="78" width="225" height="26" as="geometry" />
        </mxCell>
        <mxCell id="3UNSYMi1DVvsT3ZoBCkZ-80" value="" style="line;html=1;strokeWidth=1;fillColor=none;align=left;verticalAlign=middle;spacingTop=-1;spacingLeft=3;spacingRight=3;rotatable=0;labelPosition=right;points=[];portConstraint=eastwest;" vertex="1" parent="3UNSYMi1DVvsT3ZoBCkZ-77">
          <mxGeometry y="104" width="225" height="8" as="geometry" />
        </mxCell>
        <mxCell id="3UNSYMi1DVvsT3ZoBCkZ-83" value="+calcularValorTotal&lt;span style=&quot;background-color: initial;&quot;&gt;(): double&lt;/span&gt;" style="text;html=1;strokeColor=none;fillColor=none;align=left;verticalAlign=top;spacingLeft=4;spacingRight=4;whiteSpace=wrap;overflow=hidden;rotatable=0;points=[[0,0.5],[1,0.5]];portConstraint=eastwest;" vertex="1" parent="3UNSYMi1DVvsT3ZoBCkZ-77">
          <mxGeometry y="112" width="225" height="22" as="geometry" />
        </mxCell>
        <mxCell id="3UNSYMi1DVvsT3ZoBCkZ-205" value="+adicionarItem&lt;span style=&quot;background-color: initial;&quot;&gt;(ItemVenda item): void&lt;/span&gt;" style="text;html=1;strokeColor=none;fillColor=none;align=left;verticalAlign=top;spacingLeft=4;spacingRight=4;whiteSpace=wrap;overflow=hidden;rotatable=0;points=[[0,0.5],[1,0.5]];portConstraint=eastwest;" vertex="1" parent="3UNSYMi1DVvsT3ZoBCkZ-77">
          <mxGeometry y="134" width="225" height="26" as="geometry" />
        </mxCell>
        <mxCell id="3UNSYMi1DVvsT3ZoBCkZ-204" value="+mostrarItens&lt;span style=&quot;background-color: initial;&quot;&gt;(): void&lt;/span&gt;" style="text;html=1;strokeColor=none;fillColor=none;align=left;verticalAlign=top;spacingLeft=4;spacingRight=4;whiteSpace=wrap;overflow=hidden;rotatable=0;points=[[0,0.5],[1,0.5]];portConstraint=eastwest;" vertex="1" parent="3UNSYMi1DVvsT3ZoBCkZ-77">
          <mxGeometry y="160" width="225" height="22" as="geometry" />
        </mxCell>
        <mxCell id="tP9rD8E0Mb0VpsL-k2VD-4" style="edgeStyle=orthogonalEdgeStyle;rounded=0;orthogonalLoop=1;jettySize=auto;html=1;exitX=0.5;exitY=0;exitDx=0;exitDy=0;entryX=0.5;entryY=1;entryDx=0;entryDy=0;" edge="1" parent="1" source="3UNSYMi1DVvsT3ZoBCkZ-99" target="3UNSYMi1DVvsT3ZoBCkZ-27">
          <mxGeometry relative="1" as="geometry" />
        </mxCell>
        <mxCell id="3UNSYMi1DVvsT3ZoBCkZ-99" value="Cachorro" style="swimlane;html=1;fontStyle=1;align=center;verticalAlign=top;childLayout=stackLayout;horizontal=1;startSize=20;horizontalStack=0;resizeParent=1;resizeLast=0;collapsible=1;marginBottom=0;swimlaneFillColor=#ffffff;rounded=0;shadow=0;comic=0;labelBackgroundColor=none;strokeWidth=1;fillColor=#fad7ac;fontFamily=Verdana;fontSize=12;strokeColor=#b46504;" vertex="1" parent="1">
          <mxGeometry x="50" y="450" width="160" height="60" as="geometry" />
        </mxCell>
        <mxCell id="3UNSYMi1DVvsT3ZoBCkZ-102" value="" style="line;html=1;strokeWidth=1;fillColor=none;align=left;verticalAlign=middle;spacingTop=-1;spacingLeft=3;spacingRight=3;rotatable=0;labelPosition=right;points=[];portConstraint=eastwest;" vertex="1" parent="3UNSYMi1DVvsT3ZoBCkZ-99">
          <mxGeometry y="20" width="160" height="8" as="geometry" />
        </mxCell>
        <mxCell id="tP9rD8E0Mb0VpsL-k2VD-12" style="edgeStyle=orthogonalEdgeStyle;rounded=0;orthogonalLoop=1;jettySize=auto;html=1;exitX=0.5;exitY=0;exitDx=0;exitDy=0;entryX=0.5;entryY=1;entryDx=0;entryDy=0;" edge="1" parent="1" source="3UNSYMi1DVvsT3ZoBCkZ-107" target="3UNSYMi1DVvsT3ZoBCkZ-27">
          <mxGeometry relative="1" as="geometry" />
        </mxCell>
        <mxCell id="3UNSYMi1DVvsT3ZoBCkZ-107" value="Iguana" style="swimlane;html=1;fontStyle=1;align=center;verticalAlign=top;childLayout=stackLayout;horizontal=1;startSize=20;horizontalStack=0;resizeParent=1;resizeLast=0;collapsible=1;marginBottom=0;swimlaneFillColor=#ffffff;rounded=0;shadow=0;comic=0;labelBackgroundColor=none;strokeWidth=1;fillColor=#fad7ac;fontFamily=Verdana;fontSize=12;strokeColor=#b46504;" vertex="1" parent="1">
          <mxGeometry x="-410" y="450" width="160" height="60" as="geometry" />
        </mxCell>
        <mxCell id="3UNSYMi1DVvsT3ZoBCkZ-110" value="" style="line;html=1;strokeWidth=1;fillColor=none;align=left;verticalAlign=middle;spacingTop=-1;spacingLeft=3;spacingRight=3;rotatable=0;labelPosition=right;points=[];portConstraint=eastwest;" vertex="1" parent="3UNSYMi1DVvsT3ZoBCkZ-107">
          <mxGeometry y="20" width="160" height="8" as="geometry" />
        </mxCell>
        <mxCell id="tP9rD8E0Mb0VpsL-k2VD-16" style="edgeStyle=orthogonalEdgeStyle;rounded=0;orthogonalLoop=1;jettySize=auto;html=1;exitX=0.5;exitY=0;exitDx=0;exitDy=0;entryX=0.5;entryY=1;entryDx=0;entryDy=0;" edge="1" parent="1" source="3UNSYMi1DVvsT3ZoBCkZ-115" target="3UNSYMi1DVvsT3ZoBCkZ-27">
          <mxGeometry relative="1" as="geometry">
            <mxPoint x="30" y="400" as="targetPoint" />
          </mxGeometry>
        </mxCell>
        <mxCell id="3UNSYMi1DVvsT3ZoBCkZ-115" value="Pato" style="swimlane;html=1;fontStyle=1;align=center;verticalAlign=top;childLayout=stackLayout;horizontal=1;startSize=20;horizontalStack=0;resizeParent=1;resizeLast=0;collapsible=1;marginBottom=0;swimlaneFillColor=#ffffff;rounded=0;shadow=0;comic=0;labelBackgroundColor=none;strokeWidth=1;fillColor=#fad7ac;fontFamily=Verdana;fontSize=12;strokeColor=#b46504;" vertex="1" parent="1">
          <mxGeometry x="260" y="450" width="160" height="60" as="geometry" />
        </mxCell>
        <mxCell id="3UNSYMi1DVvsT3ZoBCkZ-118" value="" style="line;html=1;strokeWidth=1;fillColor=none;align=left;verticalAlign=middle;spacingTop=-1;spacingLeft=3;spacingRight=3;rotatable=0;labelPosition=right;points=[];portConstraint=eastwest;" vertex="1" parent="3UNSYMi1DVvsT3ZoBCkZ-115">
          <mxGeometry y="20" width="160" height="8" as="geometry" />
        </mxCell>
        <mxCell id="tP9rD8E0Mb0VpsL-k2VD-15" style="edgeStyle=orthogonalEdgeStyle;rounded=0;orthogonalLoop=1;jettySize=auto;html=1;exitX=0.5;exitY=0;exitDx=0;exitDy=0;entryX=0.5;entryY=1;entryDx=0;entryDy=0;" edge="1" parent="1" source="3UNSYMi1DVvsT3ZoBCkZ-123" target="3UNSYMi1DVvsT3ZoBCkZ-27">
          <mxGeometry relative="1" as="geometry" />
        </mxCell>
        <mxCell id="3UNSYMi1DVvsT3ZoBCkZ-123" value="Porquinho_da_India" style="swimlane;html=1;fontStyle=1;align=center;verticalAlign=top;childLayout=stackLayout;horizontal=1;startSize=20;horizontalStack=0;resizeParent=1;resizeLast=0;collapsible=1;marginBottom=0;swimlaneFillColor=#ffffff;rounded=0;shadow=0;comic=0;labelBackgroundColor=none;strokeWidth=1;fillColor=#fad7ac;fontFamily=Verdana;fontSize=12;strokeColor=#b46504;" vertex="1" parent="1">
          <mxGeometry x="140" y="580" width="160" height="60" as="geometry" />
        </mxCell>
        <mxCell id="3UNSYMi1DVvsT3ZoBCkZ-126" value="" style="line;html=1;strokeWidth=1;fillColor=none;align=left;verticalAlign=middle;spacingTop=-1;spacingLeft=3;spacingRight=3;rotatable=0;labelPosition=right;points=[];portConstraint=eastwest;" vertex="1" parent="3UNSYMi1DVvsT3ZoBCkZ-123">
          <mxGeometry y="20" width="160" height="8" as="geometry" />
        </mxCell>
        <mxCell id="tP9rD8E0Mb0VpsL-k2VD-7" style="edgeStyle=orthogonalEdgeStyle;rounded=0;orthogonalLoop=1;jettySize=auto;html=1;exitX=0.5;exitY=0;exitDx=0;exitDy=0;entryX=0.5;entryY=1;entryDx=0;entryDy=0;" edge="1" parent="1" source="3UNSYMi1DVvsT3ZoBCkZ-131" target="3UNSYMi1DVvsT3ZoBCkZ-27">
          <mxGeometry relative="1" as="geometry" />
        </mxCell>
        <mxCell id="3UNSYMi1DVvsT3ZoBCkZ-131" value="Chinchila" style="swimlane;html=1;fontStyle=1;align=center;verticalAlign=top;childLayout=stackLayout;horizontal=1;startSize=20;horizontalStack=0;resizeParent=1;resizeLast=0;collapsible=1;marginBottom=0;swimlaneFillColor=#ffffff;rounded=0;shadow=0;comic=0;labelBackgroundColor=none;strokeWidth=1;fillColor=#fad7ac;fontFamily=Verdana;fontSize=12;strokeColor=#b46504;" vertex="1" parent="1">
          <mxGeometry x="-70" y="580" width="160" height="60" as="geometry" />
        </mxCell>
        <mxCell id="3UNSYMi1DVvsT3ZoBCkZ-134" value="" style="line;html=1;strokeWidth=1;fillColor=none;align=left;verticalAlign=middle;spacingTop=-1;spacingLeft=3;spacingRight=3;rotatable=0;labelPosition=right;points=[];portConstraint=eastwest;" vertex="1" parent="3UNSYMi1DVvsT3ZoBCkZ-131">
          <mxGeometry y="20" width="160" height="8" as="geometry" />
        </mxCell>
        <mxCell id="tP9rD8E0Mb0VpsL-k2VD-13" style="edgeStyle=orthogonalEdgeStyle;rounded=0;orthogonalLoop=1;jettySize=auto;html=1;exitX=0.5;exitY=0;exitDx=0;exitDy=0;entryX=0.5;entryY=1;entryDx=0;entryDy=0;" edge="1" parent="1" source="3UNSYMi1DVvsT3ZoBCkZ-139" target="3UNSYMi1DVvsT3ZoBCkZ-27">
          <mxGeometry relative="1" as="geometry">
            <Array as="points">
              <mxPoint x="330" y="520" />
              <mxPoint x="10" y="520" />
            </Array>
          </mxGeometry>
        </mxCell>
        <mxCell id="3UNSYMi1DVvsT3ZoBCkZ-139" value="Furão" style="swimlane;html=1;fontStyle=1;align=center;verticalAlign=top;childLayout=stackLayout;horizontal=1;startSize=20;horizontalStack=0;resizeParent=1;resizeLast=0;collapsible=1;marginBottom=0;swimlaneFillColor=#ffffff;rounded=0;shadow=0;comic=0;labelBackgroundColor=none;strokeWidth=1;fillColor=#fad7ac;fontFamily=Verdana;fontSize=12;strokeColor=#b46504;" vertex="1" parent="1">
          <mxGeometry x="250" y="700" width="160" height="60" as="geometry" />
        </mxCell>
        <mxCell id="3UNSYMi1DVvsT3ZoBCkZ-142" value="" style="line;html=1;strokeWidth=1;fillColor=none;align=left;verticalAlign=middle;spacingTop=-1;spacingLeft=3;spacingRight=3;rotatable=0;labelPosition=right;points=[];portConstraint=eastwest;" vertex="1" parent="3UNSYMi1DVvsT3ZoBCkZ-139">
          <mxGeometry y="20" width="160" height="8" as="geometry" />
        </mxCell>
        <mxCell id="tP9rD8E0Mb0VpsL-k2VD-8" style="edgeStyle=orthogonalEdgeStyle;rounded=0;orthogonalLoop=1;jettySize=auto;html=1;exitX=0.5;exitY=0;exitDx=0;exitDy=0;entryX=0.5;entryY=1;entryDx=0;entryDy=0;" edge="1" parent="1" source="3UNSYMi1DVvsT3ZoBCkZ-147" target="3UNSYMi1DVvsT3ZoBCkZ-27">
          <mxGeometry relative="1" as="geometry">
            <Array as="points">
              <mxPoint x="-120" y="520" />
              <mxPoint x="10" y="520" />
            </Array>
          </mxGeometry>
        </mxCell>
        <mxCell id="3UNSYMi1DVvsT3ZoBCkZ-147" value="Gato" style="swimlane;html=1;fontStyle=1;align=center;verticalAlign=top;childLayout=stackLayout;horizontal=1;startSize=20;horizontalStack=0;resizeParent=1;resizeLast=0;collapsible=1;marginBottom=0;swimlaneFillColor=#ffffff;rounded=0;shadow=0;comic=0;labelBackgroundColor=none;strokeWidth=1;fillColor=#fad7ac;fontFamily=Verdana;fontSize=12;strokeColor=#b46504;" vertex="1" parent="1">
          <mxGeometry x="-200" y="700" width="160" height="60" as="geometry" />
        </mxCell>
        <mxCell id="3UNSYMi1DVvsT3ZoBCkZ-150" value="" style="line;html=1;strokeWidth=1;fillColor=none;align=left;verticalAlign=middle;spacingTop=-1;spacingLeft=3;spacingRight=3;rotatable=0;labelPosition=right;points=[];portConstraint=eastwest;" vertex="1" parent="3UNSYMi1DVvsT3ZoBCkZ-147">
          <mxGeometry y="20" width="160" height="8" as="geometry" />
        </mxCell>
        <mxCell id="tP9rD8E0Mb0VpsL-k2VD-9" style="edgeStyle=orthogonalEdgeStyle;rounded=0;orthogonalLoop=1;jettySize=auto;html=1;exitX=0.5;exitY=0;exitDx=0;exitDy=0;entryX=0.5;entryY=1;entryDx=0;entryDy=0;" edge="1" parent="1" source="3UNSYMi1DVvsT3ZoBCkZ-155" target="3UNSYMi1DVvsT3ZoBCkZ-27">
          <mxGeometry relative="1" as="geometry">
            <Array as="points">
              <mxPoint x="130" y="520" />
              <mxPoint x="10" y="520" />
            </Array>
          </mxGeometry>
        </mxCell>
        <mxCell id="3UNSYMi1DVvsT3ZoBCkZ-155" value="Hamster" style="swimlane;html=1;fontStyle=1;align=center;verticalAlign=top;childLayout=stackLayout;horizontal=1;startSize=20;horizontalStack=0;resizeParent=1;resizeLast=0;collapsible=1;marginBottom=0;swimlaneFillColor=#ffffff;rounded=0;shadow=0;comic=0;labelBackgroundColor=none;strokeWidth=1;fillColor=#fad7ac;fontFamily=Verdana;fontSize=12;strokeColor=#b46504;" vertex="1" parent="1">
          <mxGeometry x="50" y="700" width="160" height="60" as="geometry" />
        </mxCell>
        <mxCell id="3UNSYMi1DVvsT3ZoBCkZ-158" value="" style="line;html=1;strokeWidth=1;fillColor=none;align=left;verticalAlign=middle;spacingTop=-1;spacingLeft=3;spacingRight=3;rotatable=0;labelPosition=right;points=[];portConstraint=eastwest;" vertex="1" parent="3UNSYMi1DVvsT3ZoBCkZ-155">
          <mxGeometry y="20" width="160" height="8" as="geometry" />
        </mxCell>
        <mxCell id="tP9rD8E0Mb0VpsL-k2VD-3" style="edgeStyle=orthogonalEdgeStyle;rounded=0;orthogonalLoop=1;jettySize=auto;html=1;exitX=0.5;exitY=0;exitDx=0;exitDy=0;entryX=0.5;entryY=1;entryDx=0;entryDy=0;" edge="1" parent="1" source="3UNSYMi1DVvsT3ZoBCkZ-163" target="3UNSYMi1DVvsT3ZoBCkZ-27">
          <mxGeometry relative="1" as="geometry" />
        </mxCell>
        <mxCell id="3UNSYMi1DVvsT3ZoBCkZ-163" value="Desconhecido" style="swimlane;html=1;fontStyle=1;align=center;verticalAlign=top;childLayout=stackLayout;horizontal=1;startSize=20;horizontalStack=0;resizeParent=1;resizeLast=0;collapsible=1;marginBottom=0;swimlaneFillColor=#ffffff;rounded=0;shadow=0;comic=0;labelBackgroundColor=none;strokeWidth=1;fillColor=#fad7ac;fontFamily=Verdana;fontSize=12;strokeColor=#b46504;" vertex="1" parent="1">
          <mxGeometry x="-200" y="450" width="160" height="60" as="geometry" />
        </mxCell>
        <mxCell id="3UNSYMi1DVvsT3ZoBCkZ-166" value="" style="line;html=1;strokeWidth=1;fillColor=none;align=left;verticalAlign=middle;spacingTop=-1;spacingLeft=3;spacingRight=3;rotatable=0;labelPosition=right;points=[];portConstraint=eastwest;" vertex="1" parent="3UNSYMi1DVvsT3ZoBCkZ-163">
          <mxGeometry y="20" width="160" height="8" as="geometry" />
        </mxCell>
        <mxCell id="tP9rD8E0Mb0VpsL-k2VD-10" style="edgeStyle=orthogonalEdgeStyle;rounded=0;orthogonalLoop=1;jettySize=auto;html=1;exitX=0.5;exitY=0;exitDx=0;exitDy=0;entryX=0.5;entryY=1;entryDx=0;entryDy=0;" edge="1" parent="1" source="3UNSYMi1DVvsT3ZoBCkZ-171" target="3UNSYMi1DVvsT3ZoBCkZ-27">
          <mxGeometry relative="1" as="geometry" />
        </mxCell>
        <mxCell id="3UNSYMi1DVvsT3ZoBCkZ-171" value="Coelho" style="swimlane;html=1;fontStyle=1;align=center;verticalAlign=top;childLayout=stackLayout;horizontal=1;startSize=20;horizontalStack=0;resizeParent=1;resizeLast=0;collapsible=1;marginBottom=0;swimlaneFillColor=#ffffff;rounded=0;shadow=0;comic=0;labelBackgroundColor=none;strokeWidth=1;fillColor=#fad7ac;fontFamily=Verdana;fontSize=12;strokeColor=#b46504;" vertex="1" parent="1">
          <mxGeometry x="-290" y="580" width="160" height="60" as="geometry" />
        </mxCell>
        <mxCell id="3UNSYMi1DVvsT3ZoBCkZ-174" value="" style="line;html=1;strokeWidth=1;fillColor=none;align=left;verticalAlign=middle;spacingTop=-1;spacingLeft=3;spacingRight=3;rotatable=0;labelPosition=right;points=[];portConstraint=eastwest;" vertex="1" parent="3UNSYMi1DVvsT3ZoBCkZ-171">
          <mxGeometry y="20" width="160" height="8" as="geometry" />
        </mxCell>
        <mxCell id="tP9rD8E0Mb0VpsL-k2VD-11" style="edgeStyle=orthogonalEdgeStyle;rounded=0;orthogonalLoop=1;jettySize=auto;html=1;entryX=0.5;entryY=1;entryDx=0;entryDy=0;exitX=0.5;exitY=0;exitDx=0;exitDy=0;" edge="1" parent="1" source="3UNSYMi1DVvsT3ZoBCkZ-179" target="3UNSYMi1DVvsT3ZoBCkZ-27">
          <mxGeometry relative="1" as="geometry">
            <mxPoint x="-330" y="700" as="sourcePoint" />
            <Array as="points">
              <mxPoint x="-330" y="520" />
              <mxPoint x="10" y="520" />
            </Array>
          </mxGeometry>
        </mxCell>
        <mxCell id="3UNSYMi1DVvsT3ZoBCkZ-179" value="Cobra" style="swimlane;html=1;fontStyle=1;align=center;verticalAlign=top;childLayout=stackLayout;horizontal=1;startSize=20;horizontalStack=0;resizeParent=1;resizeLast=0;collapsible=1;marginBottom=0;swimlaneFillColor=#ffffff;rounded=0;shadow=0;comic=0;labelBackgroundColor=none;strokeWidth=1;fillColor=#fad7ac;fontFamily=Verdana;fontSize=12;strokeColor=#b46504;" vertex="1" parent="1">
          <mxGeometry x="-410" y="700" width="160" height="60" as="geometry" />
        </mxCell>
        <mxCell id="3UNSYMi1DVvsT3ZoBCkZ-182" value="" style="line;html=1;strokeWidth=1;fillColor=none;align=left;verticalAlign=middle;spacingTop=-1;spacingLeft=3;spacingRight=3;rotatable=0;labelPosition=right;points=[];portConstraint=eastwest;" vertex="1" parent="3UNSYMi1DVvsT3ZoBCkZ-179">
          <mxGeometry y="20" width="160" height="8" as="geometry" />
        </mxCell>
        <mxCell id="tP9rD8E0Mb0VpsL-k2VD-22" value="" style="endArrow=none;html=1;rounded=0;exitX=1.011;exitY=-0.165;exitDx=0;exitDy=0;exitPerimeter=0;" edge="1" parent="1">
          <mxGeometry width="50" height="50" relative="1" as="geometry">
            <mxPoint x="-588.24" y="-239.99999999999997" as="sourcePoint" />
            <mxPoint x="-500" y="-239.71" as="targetPoint" />
          </mxGeometry>
        </mxCell>
        <mxCell id="tP9rD8E0Mb0VpsL-k2VD-23" value="" style="endArrow=none;html=1;rounded=0;exitX=0.5;exitY=0;exitDx=0;exitDy=0;entryX=0.5;entryY=1;entryDx=0;entryDy=0;" edge="1" parent="1" source="3UNSYMi1DVvsT3ZoBCkZ-77" target="3UNSYMi1DVvsT3ZoBCkZ-1">
          <mxGeometry width="50" height="50" relative="1" as="geometry">
            <mxPoint x="820" y="-596" as="sourcePoint" />
            <mxPoint x="870" y="-646" as="targetPoint" />
          </mxGeometry>
        </mxCell>
        <mxCell id="tP9rD8E0Mb0VpsL-k2VD-24" value="" style="endArrow=none;html=1;rounded=0;exitX=0.5;exitY=0;exitDx=0;exitDy=0;entryX=0.5;entryY=1;entryDx=0;entryDy=0;" edge="1" parent="1" source="3UNSYMi1DVvsT3ZoBCkZ-8" target="3UNSYMi1DVvsT3ZoBCkZ-77">
          <mxGeometry width="50" height="50" relative="1" as="geometry">
            <mxPoint x="820" y="-360" as="sourcePoint" />
            <mxPoint x="870" y="-410" as="targetPoint" />
          </mxGeometry>
        </mxCell>
        <mxCell id="tP9rD8E0Mb0VpsL-k2VD-25" value="" style="endArrow=none;html=1;rounded=0;exitX=0.5;exitY=0;exitDx=0;exitDy=0;entryX=0.5;entryY=1;entryDx=0;entryDy=0;" edge="1" parent="1" source="78961159f06e98e8-43" target="3UNSYMi1DVvsT3ZoBCkZ-8">
          <mxGeometry width="50" height="50" relative="1" as="geometry">
            <mxPoint x="820" y="-160" as="sourcePoint" />
            <mxPoint x="870" y="-210" as="targetPoint" />
          </mxGeometry>
        </mxCell>
        <mxCell id="lE0ReEdnMr0ckn8vEKSM-2" value="" style="endArrow=none;html=1;rounded=0;entryX=-0.005;entryY=0.042;entryDx=0;entryDy=0;entryPerimeter=0;exitX=0.998;exitY=0.355;exitDx=0;exitDy=0;exitPerimeter=0;" edge="1" parent="1" source="78961159f06e98e8-23" target="VXUbQEOCG0mEE8cpqbr5-59">
          <mxGeometry width="50" height="50" relative="1" as="geometry">
            <mxPoint x="162.6400000000001" y="-272.2880000000001" as="sourcePoint" />
            <mxPoint x="520" y="-277.7120000000001" as="targetPoint" />
          </mxGeometry>
        </mxCell>
        <mxCell id="lE0ReEdnMr0ckn8vEKSM-3" value="" style="endArrow=none;html=1;rounded=0;exitX=0.5;exitY=0;exitDx=0;exitDy=0;entryX=0.5;entryY=1;entryDx=0;entryDy=0;" edge="1" parent="1" source="3UNSYMi1DVvsT3ZoBCkZ-27" target="78961159f06e98e8-17">
          <mxGeometry width="50" height="50" relative="1" as="geometry">
            <mxPoint x="-50" y="48" as="sourcePoint" />
            <mxPoint x="10" as="targetPoint" />
          </mxGeometry>
        </mxCell>
        <mxCell id="lE0ReEdnMr0ckn8vEKSM-13" value="" style="endArrow=none;html=1;rounded=0;" edge="1" parent="1">
          <mxGeometry width="50" height="50" relative="1" as="geometry">
            <mxPoint x="-220" as="sourcePoint" />
            <mxPoint x="-180" as="targetPoint" />
          </mxGeometry>
        </mxCell>
        <mxCell id="lE0ReEdnMr0ckn8vEKSM-14" value="" style="endArrow=none;html=1;rounded=0;" edge="1" parent="1">
          <mxGeometry width="50" height="50" relative="1" as="geometry">
            <mxPoint x="-180" as="sourcePoint" />
            <mxPoint x="-180" y="-240" as="targetPoint" />
          </mxGeometry>
        </mxCell>
        <mxCell id="lE0ReEdnMr0ckn8vEKSM-16" value="" style="endArrow=none;html=1;rounded=0;entryX=0.001;entryY=-0.001;entryDx=0;entryDy=0;entryPerimeter=0;" edge="1" parent="1" target="3UNSYMi1DVvsT3ZoBCkZ-188">
          <mxGeometry width="50" height="50" relative="1" as="geometry">
            <mxPoint x="-180" y="-240" as="sourcePoint" />
            <mxPoint x="-110" y="-290" as="targetPoint" />
          </mxGeometry>
        </mxCell>
        <mxCell id="lE0ReEdnMr0ckn8vEKSM-17" value="" style="endArrow=none;html=1;rounded=0;" edge="1" parent="1">
          <mxGeometry width="50" height="50" relative="1" as="geometry">
            <mxPoint x="-520" y="160" as="sourcePoint" />
            <mxPoint x="-520" y="40" as="targetPoint" />
          </mxGeometry>
        </mxCell>
        <mxCell id="lE0ReEdnMr0ckn8vEKSM-18" value="" style="endArrow=none;html=1;rounded=0;entryX=-0.007;entryY=0.259;entryDx=0;entryDy=0;entryPerimeter=0;" edge="1" parent="1" target="3UNSYMi1DVvsT3ZoBCkZ-34">
          <mxGeometry width="50" height="50" relative="1" as="geometry">
            <mxPoint x="-520" y="160" as="sourcePoint" />
            <mxPoint x="-470" y="110" as="targetPoint" />
          </mxGeometry>
        </mxCell>
        <mxCell id="PRtFLLTuYd7yl_iSAvRT-2" value="" style="endArrow=none;html=1;rounded=0;" edge="1" parent="1">
          <mxGeometry width="50" height="50" relative="1" as="geometry">
            <mxPoint x="-680" y="-360" as="sourcePoint" />
            <mxPoint y="-360" as="targetPoint" />
          </mxGeometry>
        </mxCell>
        <mxCell id="PRtFLLTuYd7yl_iSAvRT-4" value="" style="endArrow=none;html=1;rounded=0;" edge="1" parent="1">
          <mxGeometry width="50" height="50" relative="1" as="geometry">
            <mxPoint x="-680" y="-300" as="sourcePoint" />
            <mxPoint x="-680" y="-360" as="targetPoint" />
          </mxGeometry>
        </mxCell>
        <mxCell id="PRtFLLTuYd7yl_iSAvRT-5" value="" style="endArrow=none;html=1;rounded=0;" edge="1" parent="1">
          <mxGeometry width="50" height="50" relative="1" as="geometry">
            <mxPoint y="-318" as="sourcePoint" />
            <mxPoint y="-360" as="targetPoint" />
          </mxGeometry>
        </mxCell>
        <mxCell id="PRtFLLTuYd7yl_iSAvRT-6" value="&lt;font style=&quot;font-size: 18px;&quot;&gt;1&lt;/font&gt;" style="text;html=1;strokeColor=none;fillColor=none;align=left;verticalAlign=top;spacingLeft=4;spacingRight=4;whiteSpace=wrap;overflow=hidden;rotatable=0;points=[[0,0.5],[1,0.5]];portConstraint=eastwest;" vertex="1" parent="1">
          <mxGeometry y="-348" width="27.5" height="30" as="geometry" />
        </mxCell>
        <mxCell id="PRtFLLTuYd7yl_iSAvRT-7" value="&lt;font style=&quot;font-size: 18px;&quot;&gt;1&lt;/font&gt;" style="text;html=1;strokeColor=none;fillColor=none;align=left;verticalAlign=top;spacingLeft=4;spacingRight=4;whiteSpace=wrap;overflow=hidden;rotatable=0;points=[[0,0.5],[1,0.5]];portConstraint=eastwest;" vertex="1" parent="1">
          <mxGeometry x="-680" y="-330" width="27.5" height="30" as="geometry" />
        </mxCell>
        <mxCell id="PRtFLLTuYd7yl_iSAvRT-8" value="&lt;font style=&quot;font-size: 18px;&quot;&gt;1&lt;/font&gt;" style="text;html=1;strokeColor=none;fillColor=none;align=left;verticalAlign=top;spacingLeft=4;spacingRight=4;whiteSpace=wrap;overflow=hidden;rotatable=0;points=[[0,0.5],[1,0.5]];portConstraint=eastwest;" vertex="1" parent="1">
          <mxGeometry x="-590" y="-270" width="27.5" height="30" as="geometry" />
        </mxCell>
        <mxCell id="PRtFLLTuYd7yl_iSAvRT-9" value="&lt;font style=&quot;font-size: 18px;&quot;&gt;1&lt;/font&gt;" style="text;html=1;strokeColor=none;fillColor=none;align=left;verticalAlign=top;spacingLeft=4;spacingRight=4;whiteSpace=wrap;overflow=hidden;rotatable=0;points=[[0,0.5],[1,0.5]];portConstraint=eastwest;" vertex="1" parent="1">
          <mxGeometry x="-527.5" y="-270" width="27.5" height="30" as="geometry" />
        </mxCell>
        <mxCell id="PRtFLLTuYd7yl_iSAvRT-10" value="&lt;font style=&quot;font-size: 18px;&quot;&gt;1&lt;/font&gt;" style="text;html=1;strokeColor=none;fillColor=none;align=left;verticalAlign=top;spacingLeft=4;spacingRight=4;whiteSpace=wrap;overflow=hidden;rotatable=0;points=[[0,0.5],[1,0.5]];portConstraint=eastwest;" vertex="1" parent="1">
          <mxGeometry x="160" y="-280" width="27.5" height="30" as="geometry" />
        </mxCell>
        <mxCell id="PRtFLLTuYd7yl_iSAvRT-11" value="&lt;font style=&quot;font-size: 18px;&quot;&gt;1&lt;/font&gt;" style="text;html=1;strokeColor=none;fillColor=none;align=left;verticalAlign=top;spacingLeft=4;spacingRight=4;whiteSpace=wrap;overflow=hidden;rotatable=0;points=[[0,0.5],[1,0.5]];portConstraint=eastwest;" vertex="1" parent="1">
          <mxGeometry x="362.5" y="-280" width="27.5" height="30" as="geometry" />
        </mxCell>
        <mxCell id="PRtFLLTuYd7yl_iSAvRT-12" value="&lt;font style=&quot;font-size: 12px;&quot;&gt;1&lt;/font&gt;" style="text;html=1;strokeColor=none;fillColor=none;align=left;verticalAlign=top;spacingLeft=4;spacingRight=4;whiteSpace=wrap;overflow=hidden;rotatable=0;points=[[0,0.5],[1,0.5]];portConstraint=eastwest;" vertex="1" parent="1">
          <mxGeometry x="507" y="-227" width="20" height="20" as="geometry" />
        </mxCell>
        <mxCell id="PRtFLLTuYd7yl_iSAvRT-14" value="&lt;font style=&quot;font-size: 12px;&quot;&gt;N&lt;/font&gt;" style="text;html=1;strokeColor=none;fillColor=none;align=left;verticalAlign=top;spacingLeft=4;spacingRight=4;whiteSpace=wrap;overflow=hidden;rotatable=0;points=[[0,0.5],[1,0.5]];portConstraint=eastwest;" vertex="1" parent="1">
          <mxGeometry x="507" y="-200" width="20" height="20" as="geometry" />
        </mxCell>
        <mxCell id="PRtFLLTuYd7yl_iSAvRT-15" value="&lt;font style=&quot;font-size: 12px;&quot;&gt;1&lt;/font&gt;" style="text;html=1;strokeColor=none;fillColor=none;align=left;verticalAlign=top;spacingLeft=4;spacingRight=4;whiteSpace=wrap;overflow=hidden;rotatable=0;points=[[0,0.5],[1,0.5]];portConstraint=eastwest;" vertex="1" parent="1">
          <mxGeometry x="506" y="45" width="20" height="20" as="geometry" />
        </mxCell>
        <mxCell id="PRtFLLTuYd7yl_iSAvRT-16" value="&lt;font style=&quot;font-size: 12px;&quot;&gt;1&lt;/font&gt;" style="text;html=1;strokeColor=none;fillColor=none;align=left;verticalAlign=top;spacingLeft=4;spacingRight=4;whiteSpace=wrap;overflow=hidden;rotatable=0;points=[[0,0.5],[1,0.5]];portConstraint=eastwest;" vertex="1" parent="1">
          <mxGeometry x="509" y="185" width="20" height="20" as="geometry" />
        </mxCell>
        <mxCell id="PRtFLLTuYd7yl_iSAvRT-17" value="&lt;font style=&quot;font-size: 12px;&quot;&gt;1&lt;/font&gt;" style="text;html=1;strokeColor=none;fillColor=none;align=left;verticalAlign=top;spacingLeft=4;spacingRight=4;whiteSpace=wrap;overflow=hidden;rotatable=0;points=[[0,0.5],[1,0.5]];portConstraint=eastwest;" vertex="1" parent="1">
          <mxGeometry x="509" y="219" width="20" height="20" as="geometry" />
        </mxCell>
        <mxCell id="PRtFLLTuYd7yl_iSAvRT-18" value="&lt;font style=&quot;font-size: 12px;&quot;&gt;N&lt;/font&gt;" style="text;html=1;strokeColor=none;fillColor=none;align=left;verticalAlign=top;spacingLeft=4;spacingRight=4;whiteSpace=wrap;overflow=hidden;rotatable=0;points=[[0,0.5],[1,0.5]];portConstraint=eastwest;" vertex="1" parent="1">
          <mxGeometry x="509" y="80" width="20" height="20" as="geometry" />
        </mxCell>
        <mxCell id="PRtFLLTuYd7yl_iSAvRT-19" value="&lt;font style=&quot;font-size: 18px;&quot;&gt;1&lt;/font&gt;" style="text;html=1;strokeColor=none;fillColor=none;align=left;verticalAlign=top;spacingLeft=4;spacingRight=4;whiteSpace=wrap;overflow=hidden;rotatable=0;points=[[0,0.5],[1,0.5]];portConstraint=eastwest;" vertex="1" parent="1">
          <mxGeometry x="9" y="-85" width="27.5" height="30" as="geometry" />
        </mxCell>
        <mxCell id="PRtFLLTuYd7yl_iSAvRT-20" value="&lt;font style=&quot;font-size: 18px;&quot;&gt;N&lt;/font&gt;" style="text;html=1;strokeColor=none;fillColor=none;align=left;verticalAlign=top;spacingLeft=4;spacingRight=4;whiteSpace=wrap;overflow=hidden;rotatable=0;points=[[0,0.5],[1,0.5]];portConstraint=eastwest;" vertex="1" parent="1">
          <mxGeometry x="9" y="50" width="27.5" height="30" as="geometry" />
        </mxCell>
        <mxCell id="PRtFLLTuYd7yl_iSAvRT-21" value="&lt;font style=&quot;font-size: 18px;&quot;&gt;1&lt;/font&gt;" style="text;html=1;strokeColor=none;fillColor=none;align=left;verticalAlign=top;spacingLeft=4;spacingRight=4;whiteSpace=wrap;overflow=hidden;rotatable=0;points=[[0,0.5],[1,0.5]];portConstraint=eastwest;" vertex="1" parent="1">
          <mxGeometry x="-135" y="132" width="27.5" height="30" as="geometry" />
        </mxCell>
        <mxCell id="PRtFLLTuYd7yl_iSAvRT-22" value="&lt;font style=&quot;font-size: 18px;&quot;&gt;N&lt;/font&gt;" style="text;html=1;strokeColor=none;fillColor=none;align=left;verticalAlign=top;spacingLeft=4;spacingRight=4;whiteSpace=wrap;overflow=hidden;rotatable=0;points=[[0,0.5],[1,0.5]];portConstraint=eastwest;" vertex="1" parent="1">
          <mxGeometry x="-522" y="36" width="27.5" height="30" as="geometry" />
        </mxCell>
        <mxCell id="PRtFLLTuYd7yl_iSAvRT-23" value="&lt;font style=&quot;font-size: 18px;&quot;&gt;1&lt;/font&gt;" style="text;html=1;strokeColor=none;fillColor=none;align=left;verticalAlign=top;spacingLeft=4;spacingRight=4;whiteSpace=wrap;overflow=hidden;rotatable=0;points=[[0,0.5],[1,0.5]];portConstraint=eastwest;" vertex="1" parent="1">
          <mxGeometry x="-158" y="-267" width="27.5" height="30" as="geometry" />
        </mxCell>
        <mxCell id="PRtFLLTuYd7yl_iSAvRT-24" value="&lt;font style=&quot;font-size: 18px;&quot;&gt;N&lt;/font&gt;" style="text;html=1;strokeColor=none;fillColor=none;align=left;verticalAlign=top;spacingLeft=4;spacingRight=4;whiteSpace=wrap;overflow=hidden;rotatable=0;points=[[0,0.5],[1,0.5]];portConstraint=eastwest;" vertex="1" parent="1">
          <mxGeometry x="-220" y="-30" width="27.5" height="30" as="geometry" />
        </mxCell>
      </root>
    </mxGraphModel>
  </diagram>
</mxfile>
